<?xml version="1.0" standalone="no"?>
<svg xmlns="http://www.w3.org/2000/svg" viewBox="0 0 85 70" width="85" height="70"><g fill="#014e0c" color="#014e0c" transform="translate(20.3 0) scale(1.375) "><svg width="32.0" height="32.0" x="0.0" y="0.0" viewBox="0 0 32 32"><g display="none"><g display="inline"><polygon fill="currentColor" points="22.556,0 29.245,6.689 29.245,32 5.08,32 5.08,0   "></polygon><polygon fill="currentColor" points="29.245,6.689 22.555,6.689 22.555,0   "></polygon><g><rect x="2.755" y="18.313" fill="currentColor" width="24.093" height="8.118"></rect><polygon fill="currentColor" points="5.08,28.755 5.08,26.431 2.755,26.431    "></polygon></g></g><text transform="matrix(1 0 0 1 7.625 24.8354)" display="inline" fill="currentColor" font-family="'EurostileBold'" font-size="7.3853px"></text></g><g display="none"><text transform="matrix(1 0 0 1 8.4583 24.8354)" display="inline" fill="currentColor" font-family="'EurostileBold'" font-size="7.3853px"></text></g><g display="none"><g display="inline"><polygon fill="currentColor" points="22.556,0 29.245,6.689 29.245,32 5.08,32 5.08,0   "></polygon><polygon fill="currentColor" points="29.245,6.689 22.555,6.689 22.555,0   "></polygon><g><polygon fill="currentColor" points="26.848,26.431 2.755,26.431 2.755,18.313 32,18.313    "></polygon><polygon fill="currentColor" points="5.08,28.755 5.08,26.431 2.755,26.431    "></polygon></g></g><text transform="matrix(1 0 0 1 9.0278 24.7163)" display="inline" fill="currentColor" font-family="'EurostileBold'" font-size="7px"></text></g><g display="none"><g display="inline"><circle fill="currentColor" cx="16" cy="16" r="16"></circle><g><defs><circle id="f" cx="16" cy="16" r="16"></circle></defs><clipPath id="e"><use overflow="visible"></use></clipPath><polygon clip-path="url(#e)" fill="currentColor" points="23.417,10.181 33.884,20.648 33.884,32.886 16.216,33.948 8.268,26         "></polygon></g></g><g display="inline"><g><polygon fill="currentColor" points="19.237,6 23.417,10.181 23.417,26 8.314,26 8.314,6    "></polygon><polygon fill="currentColor" points="23.417,10.181 19.236,10.181 19.236,6    "></polygon><g><polygon fill="currentColor" points="21.919,22.519 6.861,22.519 6.861,17.446 25.139,17.446     "></polygon><polygon fill="currentColor" points="8.314,23.972 8.314,22.519 6.861,22.519     "></polygon></g></g><text transform="matrix(1 0 0 1 10.7816 21.4482)" fill="currentColor" font-family="'EurostileBold'" font-size="4.375px"></text></g></g><g display="none"><g display="inline"><circle fill="currentColor" cx="16" cy="16" r="16"></circle></g><g display="inline"><g><g><g><g><path fill="currentColor" d="M22.302,6H9.699c-0.688,0-1.25,0.562-1.25,1.25v17.5c0,0.688,0.562,1.25,1.25,1.25h12.603        c0.688,0,1.25-0.562,1.25-1.25V7.25C23.552,6.562,22.989,6,22.302,6L22.302,6z"></path></g></g></g></g><g><g><g><rect x="8.448" y="17.446" fill="currentColor" width="15.103" height="5.074"></rect></g></g></g></g></g><g display="none"><g display="inline"><g><circle fill="currentColor" cx="16" cy="16" r="16"></circle></g><g><g><g><g><g><path fill="currentColor" d="M22.302,6H9.699c-0.688,0-1.25,0.562-1.25,1.25v17.5c0,0.688,0.562,1.25,1.25,1.25h12.603         c0.688,0,1.25-0.562,1.25-1.25V7.25C23.552,6.562,22.989,6,22.302,6L22.302,6z"></path></g></g></g></g><g><g><g><rect x="8.448" y="17.446" fill="currentColor" width="15.103" height="5.074"></rect></g></g></g></g></g><g display="inline"><g><path fill="currentColor" d="M11.711,21.522v-3.076h1.512c0.43,0,0.731,0.093,0.903,0.281s0.258,0.517,0.258,0.987     c0,0.768-0.068,1.262-0.207,1.48s-0.45,0.328-0.936,0.328H11.711z M12.295,21.031h0.831c0.28,0,0.46-0.064,0.542-0.193     c0.082-0.128,0.123-0.412,0.123-0.851c0-0.453-0.037-0.742-0.111-0.865c-0.073-0.123-0.247-0.184-0.518-0.184h-0.867V21.031z"></path><path fill="currentColor" d="M16.088,18.418c0.559,0,0.919,0.093,1.08,0.278s0.241,0.601,0.241,1.245c0,0.705-0.081,1.149-0.242,1.332     c-0.162,0.183-0.553,0.275-1.173,0.275c-0.559,0-0.92-0.09-1.085-0.272c-0.164-0.181-0.246-0.579-0.246-1.196     c0-0.733,0.081-1.193,0.242-1.381C15.066,18.512,15.46,18.418,16.088,18.418z M16.043,18.919c-0.392,0-0.621,0.05-0.687,0.151     s-0.099,0.449-0.099,1.046c0,0.442,0.038,0.707,0.116,0.798c0.077,0.09,0.305,0.135,0.684,0.135c0.363,0,0.58-0.051,0.652-0.153     s0.108-0.409,0.108-0.923c0-0.515-0.034-0.82-0.103-0.914S16.422,18.919,16.043,18.919z"></path><path fill="currentColor" d="M19.703,20.424h0.586v0.106c0,0.428-0.078,0.705-0.234,0.831s-0.502,0.188-1.037,0.188     c-0.607,0-0.98-0.099-1.12-0.297c-0.14-0.198-0.209-0.729-0.209-1.591c0-0.508,0.095-0.842,0.284-1.002     c0.19-0.16,0.585-0.24,1.188-0.24c0.439,0,0.732,0.066,0.879,0.197c0.147,0.132,0.221,0.392,0.221,0.784l0.002,0.07h-0.586V19.39     c0-0.201-0.038-0.33-0.114-0.387c-0.076-0.056-0.249-0.084-0.519-0.084c-0.362,0-0.579,0.045-0.652,0.133     s-0.109,0.352-0.109,0.789c0,0.589,0.032,0.938,0.098,1.046c0.065,0.108,0.276,0.162,0.634,0.162c0.29,0,0.478-0.031,0.565-0.09     c0.087-0.06,0.129-0.192,0.129-0.397L19.703,20.424z"></path></g></g></g><g display="none"><g display="inline"><path fill="currentColor" d="M26.082,32H5.917c-1.1,0-2-0.9-2-2V2c0-1.1,0.9-2,2-2h20.165c1.1,0,2,0.9,2,2v28    C28.082,31.1,27.182,32,26.082,32z"></path><g><g><defs><polygon id="d" points="21.394,0 28.082,6.689 28.082,32 3.918,32 3.918,0      "></polygon></defs><clipPath id="c"><use overflow="visible"></use></clipPath><g clip-path="url(#c)"><rect x="3.493" y="17.745" fill="currentColor" width="25.02" height="9.338"></rect><g><rect x="3.487" y="17.432" fill="currentColor" width="25.026" height="0.5"></rect></g><g><rect x="3.487" y="26.833" fill="currentColor" width="25.026" height="0.5"></rect></g></g></g></g><g><defs><path id="b" d="M26.082,32H5.917c-1.1,0-2-0.9-2-2V2c0-1.1,0.9-2,2-2h20.165c1.1,0,2,0.9,2,2v28      C28.082,31.1,27.182,32,26.082,32z"></path></defs><clipPath id="a"><use overflow="visible"></use></clipPath><polyline clip-path="url(#a)" fill="currentColor" points="21.344,-0.234 28.406,-0.234 28.406,6.828    "></polyline></g><polygon fill="currentColor" points="21.021,0 28.083,7.061 28.083,6.354 21.729,0   "></polygon></g><g display="inline"><path fill="currentColor" d="M9.138,24.835v-4.922h2.42c0.688,0,1.169,0.149,1.444,0.45s0.412,0.827,0.412,1.579    c0,1.229-0.109,2.019-0.331,2.368s-0.72,0.524-1.497,0.524H9.138z M10.072,24.049h1.33c0.447,0,0.736-0.103,0.867-0.309    c0.131-0.205,0.197-0.659,0.197-1.361c0-0.726-0.06-1.188-0.178-1.385c-0.117-0.197-0.395-0.295-0.829-0.295h-1.388V24.049z"></path><path fill="currentColor" d="M16.141,19.869c0.895,0,1.471,0.148,1.728,0.445s0.386,0.961,0.386,1.992c0,1.128-0.129,1.838-0.387,2.132    c-0.26,0.293-0.885,0.439-1.877,0.439c-0.895,0-1.473-0.145-1.735-0.435c-0.263-0.289-0.394-0.927-0.394-1.913    c0-1.173,0.129-1.909,0.387-2.21C14.505,20.02,15.137,19.869,16.141,19.869z M16.068,20.67c-0.627,0-0.994,0.08-1.1,0.241    s-0.158,0.719-0.158,1.674c0,0.707,0.062,1.132,0.186,1.276c0.123,0.145,0.488,0.217,1.094,0.217c0.58,0,0.928-0.082,1.043-0.244    c0.115-0.162,0.173-0.654,0.173-1.477c0-0.824-0.055-1.312-0.164-1.462S16.675,20.67,16.068,20.67z"></path><path fill="currentColor" d="M21.925,23.079h0.938v0.169c0,0.686-0.125,1.128-0.375,1.329s-0.803,0.301-1.659,0.301    c-0.971,0-1.568-0.158-1.792-0.476c-0.224-0.317-0.335-1.166-0.335-2.546c0-0.812,0.151-1.347,0.454-1.604    c0.304-0.256,0.937-0.384,1.9-0.384c0.702,0,1.171,0.105,1.406,0.315c0.235,0.211,0.354,0.628,0.354,1.254l0.004,0.111h-0.938    v-0.126c0-0.322-0.061-0.528-0.183-0.619c-0.121-0.09-0.398-0.135-0.831-0.135c-0.579,0-0.927,0.071-1.044,0.213    s-0.175,0.562-0.175,1.262c0,0.942,0.052,1.5,0.157,1.674c0.104,0.173,0.442,0.26,1.015,0.26c0.464,0,0.765-0.049,0.903-0.145    c0.139-0.097,0.207-0.308,0.207-0.635L21.925,23.079z"></path></g></g><g display="none"><text transform="matrix(1 0 0 1 7.625 24.2963)" display="inline" font-family="'EurostileBold'" font-size="7.3853px"></text><path display="inline" d="M22.556,0H5.08v17.313H2.755v9.118h0l2.324,2.324v-2.324h0V32h24.165V6.689L22.556,0z M26.83,6.189   h-3.776V2.414L26.83,6.189z M3.755,18.313h22.093v7.118H3.755V18.313z M28.245,31H6.08v-4.569h20.768v-9.118H6.08V1h15.974v6.189   h6.19V31z"></path></g><g><path d="M10.478,19.374h-2.42v4.922h2.448c0.777,0,1.275-0.175,1.497-0.524s0.331-1.14,0.331-2.368   c0-0.752-0.137-1.278-0.412-1.579S11.165,19.374,10.478,19.374z M11.189,23.201c-0.131,0.206-0.42,0.309-0.867,0.309h-1.33v-3.35   h1.388c0.435,0,0.712,0.098,0.829,0.295c0.118,0.197,0.178,0.659,0.178,1.385C11.387,22.542,11.32,22.996,11.189,23.201z"></path><path d="M15.061,19.33c-1.004,0-1.636,0.15-1.893,0.451c-0.258,0.301-0.387,1.037-0.387,2.21c0,0.986,0.131,1.624,0.394,1.913   c0.263,0.29,0.841,0.435,1.735,0.435c0.992,0,1.617-0.146,1.877-0.439c0.258-0.294,0.387-1.004,0.387-2.132   c0-1.031-0.129-1.695-0.386-1.992S15.955,19.33,15.061,19.33z M16.053,23.295c-0.115,0.162-0.463,0.244-1.043,0.244   c-0.605,0-0.971-0.072-1.094-0.217c-0.124-0.145-0.186-0.569-0.186-1.276c0-0.955,0.053-1.513,0.158-1.674s0.473-0.241,1.1-0.241   c0.606,0,0.964,0.075,1.073,0.226s0.164,0.638,0.164,1.462C16.226,22.641,16.168,23.133,16.053,23.295z"></path><path d="M20.852,22.76c0,0.327-0.068,0.538-0.207,0.635c-0.139,0.096-0.439,0.145-0.903,0.145c-0.572,0-0.911-0.087-1.015-0.26   c-0.105-0.174-0.157-0.731-0.157-1.674c0-0.699,0.058-1.12,0.175-1.262s0.465-0.213,1.044-0.213c0.433,0,0.71,0.045,0.831,0.135   c0.122,0.091,0.183,0.297,0.183,0.619v0.126h0.938l-0.004-0.111c0-0.626-0.118-1.043-0.354-1.254   c-0.235-0.21-0.704-0.315-1.406-0.315c-0.964,0-1.597,0.128-1.9,0.384c-0.303,0.257-0.454,0.791-0.454,1.604   c0,1.38,0.111,2.229,0.335,2.546s0.821,0.476,1.792,0.476c0.856,0,1.409-0.1,1.659-0.301s0.375-0.644,0.375-1.329V22.54h-0.938   L20.852,22.76z"></path><path d="M5.022,28.844V32h24.279V6.731L22.573,0H5.022v16.958H2.698v9.576l2.316,2.317L5.022,28.844z M22.652,0.786l6.026,6.028   h-6.026V0.786z M5.522,0.5h16.63v6.814h6.649V31.5H5.522v-4.819H27.29v-9.723H5.522V0.5z M3.198,17.458H26.79v8.723H3.198V17.458z    M5.022,26.681v1.471l-1.471-1.471H5.022z"></path></g><g display="none"><text transform="matrix(1 0 0 1 7.625 24.2963)" display="inline" font-family="'EurostileBold'" font-size="7.3853px"></text><path display="inline" d="M22.556,0H5.08v17.313H2.755v9.118h0l2.324,2.324v-2.324h0V32h24.165V6.689L22.556,0z M26.83,6.189   h-3.776V2.414L26.83,6.189z M3.755,18.313h22.093v7.118H3.755V18.313z"></path></g></svg></g><path fill="#014e0c" fill-rule="nonzero" d="M4.70 17.21L4.70 17.21Q3.43 17.21 2.35 16.55Q1.27 15.89 0.64 14.78Q0 13.68 0 12.36L0 12.36L0.05 0.36Q0.05 0.26 0.14 0.26L0.14 0.26L2.83 0.26Q2.93 0.26 2.93 0.36L2.93 0.36L2.93 12.36Q2.93 13.18 3.44 13.74Q3.96 14.30 4.70 14.30L4.70 14.30Q5.47 14.30 5.99 13.74Q6.50 13.18 6.50 12.36L6.50 12.36L6.50 0.36Q6.50 0.26 6.60 0.26L6.60 0.26L9.29 0.26Q9.38 0.26 9.38 0.36L9.38 0.36L9.43 12.36Q9.43 13.70 8.80 14.81Q8.16 15.91 7.09 16.56Q6.02 17.21 4.70 17.21ZM15.74 16.94L11.45 16.97Q11.33 16.97 11.33 16.85L11.33 16.85L11.38 0.36Q11.38 0.26 11.47 0.26L11.47 0.26L15.96 0.24Q17.28 0.22 18.37 0.86Q19.46 1.51 20.11 2.60Q20.76 3.70 20.76 5.02L20.76 5.02L20.76 11.90Q20.76 13.30 20.09 14.44Q19.42 15.58 18.29 16.25Q17.16 16.92 15.74 16.94L15.74 16.94ZM14.28 3.14L14.26 14.02L15.74 14.02Q16.63 14.02 17.24 13.39Q17.86 12.77 17.86 11.90L17.86 11.90L17.86 4.99Q17.86 4.22 17.29 3.66Q16.73 3.10 15.96 3.12L15.96 3.12L14.28 3.14ZM30.50 16.97L22.75 16.97Q22.66 16.97 22.66 16.85L22.66 16.85L22.68 0.36Q22.68 0.26 22.78 0.26L22.78 0.26L30.48 0.26Q30.58 0.26 30.58 0.38L30.58 0.38L30.58 3.07Q30.58 3.17 30.48 3.17L30.48 3.17L25.56 3.17L25.56 6.91L30.48 6.91Q30.58 6.91 30.58 7.01L30.58 7.01L30.60 9.72Q30.60 9.82 30.50 9.82L30.50 9.82L25.56 9.82L25.56 14.02L30.50 14.02Q30.60 14.02 30.60 14.14L30.60 14.14L30.60 16.87Q30.60 16.97 30.50 16.97L30.50 16.97ZM36.77 17.21L36.77 17.21Q35.45 17.21 34.38 16.55Q33.31 15.89 32.69 14.78Q32.06 13.68 32.06 12.31L32.06 12.31L32.09 4.82Q32.09 3.50 32.70 2.41Q33.31 1.32 34.38 0.66Q35.45 0 36.77 0L36.77 0Q38.09 0 39.14 0.65Q40.20 1.30 40.82 2.39Q41.45 3.48 41.45 4.82L41.45 4.82L41.45 5.93Q41.45 6.02 41.35 6.02L41.35 6.02L38.66 6.02Q38.57 6.02 38.57 5.93L38.57 5.93L38.57 4.82Q38.57 4.03 38.05 3.46Q37.54 2.88 36.77 2.88L36.77 2.88Q35.90 2.88 35.45 3.47Q34.99 4.06 34.99 4.82L34.99 4.82L34.99 12.31Q34.99 13.20 35.51 13.75Q36.02 14.30 36.77 14.30L36.77 14.30Q37.54 14.30 38.05 13.69Q38.57 13.08 38.57 12.31L38.57 12.31L38.57 11.21Q38.57 11.11 38.66 11.11L38.66 11.11L41.38 11.11Q41.47 11.11 41.47 11.21L41.47 11.21L41.47 12.31Q41.47 13.68 40.84 14.78Q40.20 15.89 39.14 16.55Q38.09 17.21 36.77 17.21ZM47.64 16.94L43.34 16.97Q43.22 16.97 43.22 16.85L43.22 16.85L43.27 0.36Q43.27 0.26 43.37 0.26L43.37 0.26L47.86 0.24Q49.18 0.22 50.27 0.86Q51.36 1.51 52.01 2.60Q52.66 3.70 52.66 5.02L52.66 5.02L52.66 11.90Q52.66 13.30 51.98 14.44Q51.31 15.58 50.18 16.25Q49.06 16.92 47.64 16.94L47.64 16.94ZM46.18 3.14L46.15 14.02L47.64 14.02Q48.53 14.02 49.14 13.39Q49.75 12.77 49.75 11.90L49.75 11.90L49.75 4.99Q49.75 4.22 49.19 3.66Q48.62 3.10 47.86 3.12L47.86 3.12L46.18 3.14ZM58.42 17.21L58.42 17.21Q57.12 17.21 56.05 16.55Q54.98 15.89 54.34 14.80Q53.69 13.70 53.69 12.38L53.69 12.38L53.71 4.78Q53.71 3.46 54.35 2.38Q54.98 1.30 56.06 0.65Q57.14 0 58.42 0L58.42 0Q59.71 0 60.77 0.65Q61.82 1.30 62.46 2.38Q63.10 3.46 63.10 4.78L63.10 4.78L63.12 12.38Q63.12 13.70 62.48 14.80Q61.85 15.89 60.78 16.55Q59.71 17.21 58.42 17.21ZM58.42 14.30L58.42 14.30Q59.14 14.30 59.68 13.72Q60.22 13.13 60.22 12.38L60.22 12.38L60.19 4.78Q60.19 3.98 59.69 3.43Q59.18 2.88 58.42 2.88L58.42 2.88Q57.67 2.88 57.14 3.42Q56.62 3.96 56.62 4.78L56.62 4.78L56.62 12.38Q56.62 13.18 57.14 13.74Q57.67 14.30 58.42 14.30ZM69.36 17.21L69.36 17.21Q68.04 17.21 66.97 16.55Q65.90 15.89 65.28 14.78Q64.66 13.68 64.66 12.31L64.66 12.31L64.68 4.82Q64.68 3.50 65.29 2.41Q65.90 1.32 66.97 0.66Q68.04 0 69.36 0L69.36 0Q70.68 0 71.74 0.65Q72.79 1.30 73.42 2.39Q74.04 3.48 74.04 4.82L74.04 4.82L74.04 5.93Q74.04 6.02 73.94 6.02L73.94 6.02L71.26 6.02Q71.16 6.02 71.16 5.93L71.16 5.93L71.16 4.82Q71.16 4.03 70.64 3.46Q70.13 2.88 69.36 2.88L69.36 2.88Q68.50 2.88 68.04 3.47Q67.58 4.06 67.58 4.82L67.58 4.82L67.58 12.31Q67.58 13.20 68.10 13.75Q68.62 14.30 69.36 14.30L69.36 14.30Q70.13 14.30 70.64 13.69Q71.16 13.08 71.16 12.31L71.16 12.31L71.16 11.21Q71.16 11.11 71.26 11.11L71.26 11.11L73.97 11.11Q74.06 11.11 74.06 11.21L74.06 11.21L74.06 12.31Q74.06 13.68 73.43 14.78Q72.79 15.89 71.74 16.55Q70.68 17.21 69.36 17.21ZM79.90 17.21L79.90 17.21Q78.60 17.21 77.53 16.55Q76.46 15.89 75.83 14.80Q75.19 13.70 75.19 12.38L75.19 12.38L75.19 11.28Q75.19 11.16 75.31 11.16L75.31 11.16L78 11.16Q78.10 11.16 78.10 11.28L78.10 11.28L78.10 12.38Q78.10 13.18 78.62 13.74Q79.15 14.30 79.90 14.30L79.90 14.30Q80.64 14.30 81.17 13.73Q81.70 13.15 81.70 12.38L81.70 12.38Q81.70 11.50 80.54 10.85L80.54 10.85Q80.16 10.63 79.34 10.18Q78.53 9.72 77.81 9.31L77.81 9.31Q76.49 8.54 75.85 7.38Q75.22 6.22 75.22 4.75L75.22 4.75Q75.22 3.41 75.86 2.34Q76.51 1.27 77.58 0.65Q78.65 0.02 79.90 0.02L79.90 0.02Q81.17 0.02 82.24 0.66Q83.30 1.30 83.94 2.36Q84.58 3.43 84.58 4.75L84.58 4.75L84.58 6.72Q84.58 6.82 84.48 6.82L84.48 6.82L81.79 6.82Q81.70 6.82 81.70 6.72L81.70 6.72L81.67 4.75Q81.67 3.91 81.14 3.38Q80.62 2.86 79.90 2.86L79.90 2.86Q79.15 2.86 78.62 3.42Q78.10 3.98 78.10 4.75L78.10 4.75Q78.10 5.54 78.43 6.07Q78.77 6.60 79.66 7.08L79.66 7.08Q79.78 7.15 80.12 7.33Q80.47 7.51 80.88 7.74Q81.29 7.97 81.61 8.14Q81.94 8.30 82.01 8.35L82.01 8.35Q83.21 9.02 83.90 10.00Q84.60 10.97 84.60 12.38L84.60 12.38Q84.60 13.75 83.96 14.84Q83.33 15.94 82.26 16.57Q81.19 17.21 79.90 17.21Z" transform="translate(0, 52)"></path></svg>